# xmcd
#
# Track frame offsets:
#	150
#	13036
#	25923
#	39221
#	54172
#	67927
#	88358
#	97767
#	115200
#	129935
#	141199
#	153411
#	177411
#	188084
#	198839
#
# Disc length: 2820 seconds
#
# Revision: 1
# Processed by: cddbd v1.4b42PL1 Copyright (c) Steve Scherf et al.
# Submitted via: audiograbber 1.80.04
#
DISCID=b90b020f
DTITLE=The Five Blind Boys of Alabama - Hallelujah - A Collection of Their Fine
DTITLE=st Recordings
DYEAR=1999
DGENRE=Gospel
TTITLE0=Something's Got A Hold On Me
TTITLE1=When I Come To The End Of My Journey
TTITLE2=Too Close To Heaven
TTITLE3=The War In Vietnam
TTITLE4=A Great Camp Meeting
TTITLE5=Father, I Stretch My Hands To Thee
TTITLE6=Come This Far By Faith
TTITLE7=How Far Am I From Canaan
TTITLE8=Too Sweet To Be Saved
TTITLE9=Home In That Rock
TTITLE10=I Got Jesus On My Mind
TTITLE11=Lord's Been Good To Me
TTITLE12=Alone And Motherless
TTITLE13=Running For My Life
TTITLE14=I Saw The Light
EXTD=
EXTT0=
EXTT1=
EXTT2=
EXTT3=
EXTT4=
EXTT5=
EXTT6=
EXTT7=
EXTT8=
EXTT9=
EXTT10=
EXTT11=
EXTT12=
EXTT13=
EXTT14=
PLAYORDER=
